<?xml version="1.0" encoding="UTF-8" standalone="no" ?>
<!DOCTYPE svg PUBLIC "-//W3C//DTD SVG 1.1//EN" "http://www.w3.org/Graphics/SVG/1.1/DTD/svg11.dtd">
<svg xmlns="http://www.w3.org/2000/svg" xmlns:xlink="http://www.w3.org/1999/xlink" version="1.1" width="50" height="50" viewBox="0 0 50 50" xml:space="preserve">
<desc>Created with Fabric.js 4.6.0</desc>
<defs>
</defs>
<g transform="matrix(1 0 0 1 250 250)" id="fxHD8hUPia2QrkOvD6m8A"  >
<path style="stroke: none; stroke-width: 1; stroke-dasharray: none; stroke-linecap: butt; stroke-dashoffset: 0; stroke-linejoin: miter; stroke-miterlimit: 4; fill: rgb(236,236,236); fill-rule: nonzero; opacity: 1;" vector-effect="non-scaling-stroke"  transform=" translate(-25, -25)" d="M 50 25 C 50 38.8071 38.8071 50 25 50 C 11.1929 50 0 38.8071 0 25 C 0 11.1929 11.1929 0 25 0 C 38.8071 0 50 11.1929 50 25 Z" stroke-linecap="round" />
</g>
<g transform="matrix(1 0 0 1 250 250)" id="5gKMEdc_FiQ5MffD1HQV8"  >
<path style="stroke: rgb(255,255,255); stroke-width: 1; stroke-dasharray: none; stroke-linecap: butt; stroke-dashoffset: 0; stroke-linejoin: miter; stroke-miterlimit: 4; fill: none; fill-rule: nonzero; opacity: 1;" vector-effect="non-scaling-stroke"  transform=" translate(-25, -25)" d="M 50 25 C 50 38.8071 38.8071 50 25 50 C 11.1929 50 0 38.8071 0 25 C 0 11.1929 11.1929 0 25 0 C 38.8071 0 50 11.1929 50 25 Z" stroke-linecap="round" />
</g>
<g transform="matrix(1 0 0 1 250 252.5)" id="Z4YdEEkbZdrEV9-ooOUHA"  >
<path style="stroke: rgb(0,0,0); stroke-width: 1; stroke-dasharray: none; stroke-linecap: butt; stroke-dashoffset: 0; stroke-linejoin: miter; stroke-miterlimit: 4; fill: none; fill-rule: nonzero; opacity: 1;" vector-effect="non-scaling-stroke"  transform=" translate(-25, -27.5)" d="M 33.3333 23.3333 L 25 31.6667 L 16.6667 23.3333" stroke-linecap="round" />
</g>
</svg>
